# xmcd
#
# Track frame offsets:
#	150
#	12410
#	27171
#	38779
#	47884
#	61797
#	75544
#	87076
#	97819
#	107397
#	119397
#	132458
#	145083
#
# Disc length: 2042 seconds
#
# Revision: 0
# Processed by: cddbd v1.5.2PL0 Copyright (c) Steve Scherf et al.
# Submitted via: audiograbber 1.81.01
#
DISCID=9b07f80d
DTITLE=The Barker Band - The Night Ain't Over (Advance)
DYEAR=2007
DGENRE=Bluegrass
TTITLE0=The night ain't over
TTITLE1=No matter how bad it gets
TTITLE2=Its too late
TTITLE3=She isn't the law
TTITLE4=Goodnight
TTITLE5=Anna Lee
TTITLE6=Babys gonna burn
TTITLE7=I'll be gone
TTITLE8=Crying in my sleep
TTITLE9=Rocking out the madness
TTITLE10=Whenever I'm gone
TTITLE11=Rolling with only you
TTITLE12=Acton breakdown
EXTD=
EXTT0=
EXTT1=
EXTT2=
EXTT3=
EXTT4=
EXTT5=
EXTT6=
EXTT7=
EXTT8=
EXTT9=
EXTT10=
EXTT11=
EXTT12=
PLAYORDER=
